<svg width="21" height="10" viewBox="0 0 21 10" fill="none" xmlns="http://www.w3.org/2000/svg">
<path d="M18.3021 7.0098C18.3021 7.0098 19.9191 8.40651 20.3191 9.05282C20.3269 9.06215 20.333 9.07248 20.3371 9.08344C20.5001 9.3222 20.5401 9.50936 20.4601 9.64754C20.3251 9.87581 19.8681 9.99038 19.7131 10H16.8551C16.6561 10 16.2421 9.95452 15.7381 9.65017C15.3531 9.4149 14.9701 9.02746 14.5991 8.64877C14.0451 8.08641 13.5661 7.59839 13.0811 7.59839C13.0198 7.59828 12.959 7.60715 12.9011 7.62463C12.5341 7.72608 12.0681 8.18349 12.0681 9.40178C12.0681 9.7831 11.7241 10 11.4831 10H10.1741C9.7281 10 7.4061 9.86356 5.3471 7.96484C2.82409 5.6402 0.55809 0.976911 0.53609 0.935806C0.39509 0.634074 0.69109 0.469652 1.01109 0.469652H3.89709C4.28409 0.469652 4.41009 0.674305 4.49809 0.857967C4.60009 1.06874 4.9781 1.91184 5.5981 2.85902C6.6021 4.40003 7.2191 5.02711 7.7121 5.02711C7.80472 5.02735 7.89578 5.00623 7.9761 4.96589C8.6201 4.65629 8.5001 2.64474 8.4701 2.23019C8.4701 2.14973 8.4691 1.33199 8.1391 0.93668C7.9031 0.653315 7.5011 0.543117 7.2581 0.502886C7.3231 0.420675 7.4611 0.294735 7.6381 0.220395C8.0791 0.0279866 8.8761 0 9.6671 0H10.1061C10.9641 0.010495 11.1861 0.0585971 11.4981 0.127689C12.1261 0.258877 12.1381 0.614833 12.0831 1.82701C12.0671 2.17334 12.0501 2.56341 12.0501 3.02256C12.0501 3.12052 12.0451 3.22984 12.0451 3.34091C12.0261 3.96274 12.0011 4.66329 12.5031 4.95102C12.5682 4.9865 12.6434 5.00528 12.7201 5.00525C12.8941 5.00525 13.4151 5.00525 14.8281 2.88438C15.4481 1.9477 15.9281 0.8431 15.9611 0.760014C15.9891 0.713661 16.0731 0.583348 16.1751 0.530873C16.2477 0.49711 16.3289 0.480243 16.4111 0.481896H19.8061C20.1761 0.481896 20.4271 0.530873 20.4761 0.653315C20.5581 0.851846 20.4601 1.45793 18.9101 3.29106C18.6491 3.59629 18.4201 3.86042 18.2191 4.09131C16.8141 5.70404 16.8141 5.78538 18.3021 7.0098V7.0098Z" fill="white"/>
</svg>
