<svg width="21" height="14" viewBox="0 0 21 14" fill="none" xmlns="http://www.w3.org/2000/svg">
<path d="M20.0825 2.16946C19.9665 1.75411 19.7454 1.37568 19.4405 1.07076C19.1356 0.765838 18.7572 0.544732 18.3418 0.428814C16.7829 0.0111585 10.5089 0.0111584 10.5089 0.0111584C10.5089 0.0111584 4.25074 0.0028221 2.67599 0.428814C2.26064 0.544732 1.88221 0.765838 1.57729 1.07076C1.27237 1.37568 1.05126 1.75411 0.935342 2.16946C0.639832 3.76548 0.494145 5.38562 0.50018 7.00876C0.495286 8.62577 0.640969 10.2397 0.935342 11.8297C1.05126 12.2451 1.27237 12.6235 1.57729 12.9284C1.88221 13.2333 2.26064 13.4544 2.67599 13.5704C4.23323 13.9889 10.5089 13.9889 10.5089 13.9889C10.5089 13.9889 16.7662 13.9889 18.3418 13.5704C18.7572 13.4544 19.1356 13.2333 19.4405 12.9284C19.7454 12.6235 19.9665 12.2451 20.0825 11.8297C20.3707 10.2391 20.5102 8.6252 20.4993 7.00876C20.5114 5.3862 20.3718 3.76606 20.0825 2.16946ZM8.50649 10.0024V4.00598L13.7284 7.00876L8.50649 10.0024Z" fill="white"/>
</svg>
